<?xml version="1.0" encoding="UTF-8" standalone="no"?>
<!-- Created with Inkscape (http://www.inkscape.org/) -->

<svg
   xmlns:dc="http://purl.org/dc/elements/1.1/"
   xmlns:cc="http://creativecommons.org/ns#"
   xmlns:rdf="http://www.w3.org/1999/02/22-rdf-syntax-ns#"
   xmlns:svg="http://www.w3.org/2000/svg"
   xmlns="http://www.w3.org/2000/svg"
   xmlns:xlink="http://www.w3.org/1999/xlink"
   xmlns:sodipodi="http://sodipodi.sourceforge.net/DTD/sodipodi-0.dtd"
   xmlns:inkscape="http://www.inkscape.org/namespaces/inkscape"
   width="169.33252mm"
   height="21.760744mm"
   viewBox="0 0 599.99712 77.104998"
   id="svg9863"
   version="1.1"
   inkscape:version="0.91 r13725"
   sodipodi:docname="logo.svg">
  <defs
     id="defs9865">
    <linearGradient
       inkscape:collect="always"
       xlink:href="#linearGradient5170"
       id="linearGradient5140"
       x1="1920.9551"
       y1="739.99969"
       x2="2927.7786"
       y2="739.99969"
       gradientUnits="userSpaceOnUse" />
    <linearGradient
       id="linearGradient5170"
       inkscape:collect="always">
      <stop
         id="stop5172"
         offset="0"
         style="stop-color:#ffffff;stop-opacity:1" />
      <stop
         id="stop5174"
         offset="1"
         style="stop-color:#01f2ff;stop-opacity:1" />
    </linearGradient>
    <linearGradient
       inkscape:collect="always"
       xlink:href="#linearGradient5170"
       id="linearGradient10461"
       gradientUnits="userSpaceOnUse"
       x1="1920.9551"
       y1="739.99969"
       x2="2927.7786"
       y2="739.99969" />
    <linearGradient
       inkscape:collect="always"
       xlink:href="#linearGradient5170"
       id="linearGradient10463"
       gradientUnits="userSpaceOnUse"
       x1="1920.9551"
       y1="739.99969"
       x2="2927.7786"
       y2="739.99969" />
    <linearGradient
       inkscape:collect="always"
       xlink:href="#linearGradient5170"
       id="linearGradient10465"
       gradientUnits="userSpaceOnUse"
       x1="1920.9551"
       y1="739.99969"
       x2="2927.7786"
       y2="739.99969" />
    <linearGradient
       inkscape:collect="always"
       xlink:href="#linearGradient5170"
       id="linearGradient10467"
       gradientUnits="userSpaceOnUse"
       x1="1920.9551"
       y1="739.99969"
       x2="2927.7786"
       y2="739.99969" />
    <linearGradient
       inkscape:collect="always"
       xlink:href="#linearGradient5170"
       id="linearGradient10469"
       gradientUnits="userSpaceOnUse"
       x1="1920.9551"
       y1="739.99969"
       x2="2927.7786"
       y2="739.99969" />
    <linearGradient
       inkscape:collect="always"
       xlink:href="#linearGradient5170"
       id="linearGradient10471"
       gradientUnits="userSpaceOnUse"
       x1="1920.9551"
       y1="739.99969"
       x2="2927.7786"
       y2="739.99969" />
  </defs>
  <sodipodi:namedview
     id="base"
     pagecolor="#ffffff"
     bordercolor="#666666"
     borderopacity="1.0"
     inkscape:pageopacity="0.0"
     inkscape:pageshadow="2"
     inkscape:zoom="0.35"
     inkscape:cx="-147.85858"
     inkscape:cy="-21.4475"
     inkscape:document-units="px"
     inkscape:current-layer="layer1"
     showgrid="false"
     fit-margin-top="0"
     fit-margin-left="0"
     fit-margin-right="0"
     fit-margin-bottom="0"
     inkscape:window-width="1280"
     inkscape:window-height="751"
     inkscape:window-x="0"
     inkscape:window-y="0"
     inkscape:window-maximized="1" />
  <metadata
     id="metadata9868">
    <rdf:RDF>
      <cc:Work
         rdf:about="">
        <dc:format>image/svg+xml</dc:format>
        <dc:type
           rdf:resource="http://purl.org/dc/dcmitype/StillImage" />
        <dc:title></dc:title>
      </cc:Work>
    </rdf:RDF>
  </metadata>
  <g
     inkscape:label="Layer 1"
     inkscape:groupmode="layer"
     id="layer1"
     transform="translate(-57.144295,-433.8097)">
    <g
       id="g5126"
       style="opacity:1;fill:url(#linearGradient5140);fill-opacity:1;stroke:none;stroke-width:2.0999999;stroke-miterlimit:4;stroke-dasharray:none;stroke-opacity:1"
       transform="matrix(0.59593084,0,0,0.59593084,-1087.6121,31.373562)">
      <path
         style="color:#000000;font-style:normal;font-variant:normal;font-weight:normal;font-stretch:normal;font-size:medium;line-height:normal;font-family:sans-serif;text-indent:0;text-align:start;text-decoration:none;text-decoration-line:none;text-decoration-style:solid;text-decoration-color:#000000;letter-spacing:normal;word-spacing:normal;text-transform:none;direction:ltr;block-progression:tb;writing-mode:lr-tb;baseline-shift:baseline;text-anchor:start;white-space:normal;clip-rule:nonzero;display:inline;overflow:visible;visibility:visible;opacity:1;isolation:auto;mix-blend-mode:normal;color-interpolation:sRGB;color-interpolation-filters:linearRGB;solid-color:#000000;solid-opacity:1;fill:url(#linearGradient10461);fill-opacity:1;fill-rule:evenodd;stroke:none;stroke-width:2.0999999;stroke-linecap:butt;stroke-linejoin:miter;stroke-miterlimit:4;stroke-dasharray:none;stroke-dashoffset:0;stroke-opacity:1;color-rendering:auto;image-rendering:auto;shape-rendering:auto;text-rendering:auto;enable-background:accumulate"
         d="m 2202.1352,678.22885 c -11.4815,-1.35402 -22.9185,0.61161 -32.8234,5.35835 -19.8097,9.49377 -34.4397,29.96786 -34.3866,54.49414 0.055,25.68455 15.0678,47.20787 35.9273,56.55026 20.8594,9.34239 47.9933,5.74492 68.3995,-14.09232 l -20.2152,-20.79281 c -13.0309,12.66755 -25.7118,13.17795 -36.3294,8.42251 -10.6176,-4.75544 -18.7506,-15.53218 -18.7821,-30.14999 -0.029,-13.10051 7.5186,-23.29522 17.9211,-28.28063 6.2792,-3.00935 13.2753,-3.80743 20.4417,-2.039 l -9.4703,10.04216 21.0987,19.89815 32.9877,-34.97589 -11.6851,-9.88383 c -10.0758,-8.52285 -21.6024,-13.19709 -33.0839,-14.5511 z"
         id="path4550-0-8-9"
         inkscape:connector-curvature="0" />
      <g
         id="g4630-3-3-6"
         transform="matrix(2.900013,0,0,2.900013,3685.7437,-702.66643)"
         style="fill:url(#linearGradient10465);fill-opacity:1;stroke:none;stroke-width:0.72413468;stroke-miterlimit:4;stroke-dasharray:none;stroke-opacity:1">
        <path
           style="color:#000000;font-style:normal;font-variant:normal;font-weight:normal;font-stretch:normal;font-size:medium;line-height:normal;font-family:sans-serif;text-indent:0;text-align:start;text-decoration:none;text-decoration-line:none;text-decoration-style:solid;text-decoration-color:#000000;letter-spacing:normal;word-spacing:normal;text-transform:none;direction:ltr;block-progression:tb;writing-mode:lr-tb;baseline-shift:baseline;text-anchor:start;white-space:normal;clip-rule:nonzero;display:inline;overflow:visible;visibility:visible;opacity:1;isolation:auto;mix-blend-mode:normal;color-interpolation:sRGB;color-interpolation-filters:linearRGB;solid-color:#000000;solid-opacity:1;fill:url(#linearGradient10463);fill-opacity:1;fill-rule:evenodd;stroke:none;stroke-width:2.0999999;stroke-linecap:butt;stroke-linejoin:miter;stroke-miterlimit:4;stroke-dasharray:none;stroke-dashoffset:0;stroke-opacity:1;color-rendering:auto;image-rendering:auto;shape-rendering:auto;text-rendering:auto;enable-background:accumulate"
           d="m 1928.6074,680.35742 c -0.1187,7.71291 -0.2014,12.56085 -0.3125,18.95703 l -7.3398,0 0,29 6.8945,0 c -0.076,7.91631 -0.066,14.47978 0.1016,20.00586 0.4243,14.01252 2.1046,23.71433 7.5605,31.54297 4.1806,5.99874 10.4733,12.64707 19.6778,16.39844 9.2044,3.75137 20.4661,4.15855 32.9355,0.93945 l -7.2441,-28.08203 c -8.1078,2.09309 -12.1645,1.34206 -14.7481,0.28906 -2.5836,-1.05299 -4.5484,-2.85467 -6.8262,-6.12304 -1.0025,-1.4385 -1.9942,-3.52836 -2.3671,-15.84375 -0.373,-12.31543 0.142,-32.86752 0.6621,-66.63672 l -28.9942,-0.44727 z m 34.9199,18.95703 0,29 34.5684,0 0,-29 -34.5684,0 z"
           transform="matrix(0.34482604,0,0,0.34482604,-1270.9404,242.29768)"
           id="path4552-2-1-7"
           inkscape:connector-curvature="0" />
      </g>
      <path
         style="color:#000000;font-style:normal;font-variant:normal;font-weight:normal;font-stretch:normal;font-size:medium;line-height:normal;font-family:sans-serif;text-indent:0;text-align:start;text-decoration:none;text-decoration-line:none;text-decoration-style:solid;text-decoration-color:#000000;letter-spacing:normal;word-spacing:normal;text-transform:none;direction:ltr;block-progression:tb;writing-mode:lr-tb;baseline-shift:baseline;text-anchor:start;white-space:normal;clip-rule:nonzero;display:inline;overflow:visible;visibility:visible;opacity:1;isolation:auto;mix-blend-mode:normal;color-interpolation:sRGB;color-interpolation-filters:linearRGB;solid-color:#000000;solid-opacity:1;fill:url(#linearGradient10467);fill-opacity:1;fill-rule:evenodd;stroke:none;stroke-width:2.0999999;stroke-linecap:butt;stroke-linejoin:miter;stroke-miterlimit:4;stroke-dasharray:none;stroke-dashoffset:0;stroke-opacity:1;color-rendering:auto;image-rendering:auto;shape-rendering:auto;text-rendering:auto;enable-background:accumulate"
         d="m 2434.7197,675.31752 c -8.6247,-2.9e-4 -17.1912,2.49807 -24.7181,6.96119 -7.8468,4.6525 -15.1298,11.75231 -19.8017,21.31394 -3.7349,7.64443 -4.0784,14.17874 -4.8881,22.7187 -0.8097,8.53996 -1.2063,18.22571 -1.4047,27.67483 -0.3968,18.89793 0.026,37.6903 0.023,40.23768 l 29.0001,0.0522 c 0.01,-4.89842 -0.4134,-21.61438 -0.034,-39.68262 0.1897,-9.03412 0.5893,-18.19352 1.2858,-25.53955 0.6965,-7.34573 2.5654,-13.73475 2.073,-12.72699 1.9602,-4.01217 4.9763,-6.99193 8.5358,-9.10227 3.671,-2.17675 6.4561,-2.90582 9.9291,-2.90582 3.4718,5.8e-4 6.2496,0.72733 9.9235,2.90582 3.5594,2.11034 6.5755,5.0901 8.5358,9.10227 -0.199,-0.40745 1.3965,4.96656 2.0731,11.50928 0.6765,6.54272 1.0627,14.77499 1.2404,23.18879 0.3554,16.82762 -0.086,34.19696 -0.079,43.1435 l 29.0001,-0.029 c -0.01,-7.89906 0.4484,-25.99543 0.074,-43.738 -0.1873,-8.87143 -0.5752,-17.69936 -1.3877,-25.55636 -0.8125,-7.85701 -1.4239,-14.21906 -4.8655,-21.26319 -4.6718,-9.56163 -11.9548,-16.66144 -19.8016,-21.31394 -7.524,-4.46138 -16.0863,-6.96032 -24.7068,-6.96119 l -0.01,0 z"
         id="path4562-5-6-7"
         inkscape:connector-curvature="0" />
      <path
         style="color:#000000;font-style:normal;font-variant:normal;font-weight:normal;font-stretch:normal;font-size:medium;line-height:normal;font-family:sans-serif;text-indent:0;text-align:start;text-decoration:none;text-decoration-line:none;text-decoration-style:solid;text-decoration-color:#000000;letter-spacing:normal;word-spacing:normal;text-transform:none;direction:ltr;block-progression:tb;writing-mode:lr-tb;baseline-shift:baseline;text-anchor:start;white-space:normal;clip-rule:nonzero;display:inline;overflow:visible;visibility:visible;opacity:1;isolation:auto;mix-blend-mode:normal;color-interpolation:sRGB;color-interpolation-filters:linearRGB;solid-color:#000000;solid-opacity:1;fill:url(#linearGradient10469);fill-opacity:1;fill-rule:evenodd;stroke:none;stroke-width:2.0999999;stroke-linecap:butt;stroke-linejoin:miter;stroke-miterlimit:4;stroke-dasharray:none;stroke-dashoffset:0;stroke-opacity:1;color-rendering:auto;image-rendering:auto;shape-rendering:auto;text-rendering:auto;enable-background:accumulate"
         d="m 2665.1631,675.61216 c -3.8414,0.10441 -7.5092,0.54637 -10.9997,1.30849 -13.9619,3.04791 -24.9984,11.94689 -29.4646,23.46633 -4.4662,11.51914 -2.1198,24.98361 5.9926,34.69807 8.1094,9.71098 21.379,15.44895 37.1451,15.66703 8.4566,0.1247 11.773,2.89044 13.4805,5.29572 1.7075,2.40527 1.8539,5.09126 0.912,7.26134 -0.942,2.17037 -2.5804,4.44311 -8.8927,5.3018 -6.3122,0.85841 -17.6924,-0.67541 -33.8769,-9.52712 l -13.9166,25.44297 c 19.8475,10.85533 37.0008,14.824 51.7074,12.82357 14.7067,-2.00014 26.5674,-10.94262 31.583,-22.49772 5.0156,-11.5551 3.5759,-25.10657 -3.8686,-35.59302 -7.4445,-10.48674 -20.8445,-17.26813 -36.6976,-17.50216 l -0.012,0 -0.01,0 c -9.2566,-0.1247 -13.4656,-3.06676 -15.2987,-5.26178 -1.8331,-2.19531 -1.8907,-3.87442 -1.2121,-5.62458 0.6785,-1.75016 2.3313,-4.24823 8.6094,-5.61877 6.2781,-1.37055 17.3053,-0.89669 33.0443,5.62457 l 11.0959,-26.79119 c -14.7011,-6.09118 -27.8018,-8.79139 -39.3257,-8.47355 z"
         id="path4567-1-8-2"
         inkscape:connector-curvature="0" />
      <path
         style="color:#000000;font-style:normal;font-variant:normal;font-weight:normal;font-stretch:normal;font-size:medium;line-height:normal;font-family:sans-serif;text-indent:0;text-align:start;text-decoration:none;text-decoration-line:none;text-decoration-style:solid;text-decoration-color:#000000;letter-spacing:normal;word-spacing:normal;text-transform:none;direction:ltr;block-progression:tb;writing-mode:lr-tb;baseline-shift:baseline;text-anchor:start;white-space:normal;clip-rule:nonzero;display:inline;overflow:visible;visibility:visible;opacity:1;isolation:auto;mix-blend-mode:normal;color-interpolation:sRGB;color-interpolation-filters:linearRGB;solid-color:#000000;solid-opacity:1;fill:url(#linearGradient10471);fill-opacity:1;fill-rule:evenodd;stroke:none;stroke-width:2.0999999;stroke-linecap:butt;stroke-linejoin:miter;stroke-miterlimit:4;stroke-dasharray:none;stroke-dashoffset:0;stroke-opacity:1;color-rendering:auto;image-rendering:auto;shape-rendering:auto;text-rendering:auto;enable-background:accumulate"
         d="m 2876.2353,683.92708 c -7.7465,-0.2726 -16.6921,-0.1102 -27.6238,0.058 l 0.4475,28.99462 c 21.6051,-0.33089 34.7726,0.145 40.4529,1.59153 5.6803,1.44682 4.508,0.551 7.0348,6.71179 0.5145,1.25455 0.7841,2.5088 -2.3336,6.23068 -3.1177,3.72158 -9.8217,8.30447 -19.4561,10.83532 l -23.0925,6.06624 54.6244,60.27735 21.4896,-19.47329 -24.9786,-27.56144 c 5.2669,-3.2512 9.9045,-7.06269 13.6391,-11.52059 8.0265,-9.58164 12.0235,-23.4611 6.9385,-35.85953 -4.4315,-10.80487 -14.4294,-20.68463 -26.7062,-23.81172 -6.1384,-1.56368 -12.6895,-2.26549 -20.436,-2.53751 z"
         id="path4569-5-3-5"
         inkscape:connector-curvature="0" />
    </g>
  </g>
</svg>
